# xmcd
#
# Track frame offsets:
#	150
#	9917
#	20583
#	31825
#	39235
#	47659
#	59436
#	72561
#	81739
#	93043
#	104611
#	115283
#	124285
#	136018
#	147556
#	156702
#	167535
#	175908
#	185744
#	195080
#	206880
#	215999
#	225344
#	234283
#	245393
#
# Disc length: 3417 seconds
#
# Revision: 1
# Processed by: cddbd v1.5.2PL0 Copyright (c) Steve Scherf et al.
# Submitted via: audiograbber 1.83.01
#
DISCID=650d5719
DTITLE=Red Hot Rockabilly - Got Rockin' on my Mind CD1
DYEAR=19
DGENRE=RoBi
TTITLE0=Beamon Forse - You better go now
TTITLE1=Terry Gene and his Kool Kats - The Woman i Love
TTITLE2=Witter Jimmy - If you Love my Woman
TTITLE3=Three Ramblers The - If you Call that Love
TTITLE4=Three Ramblers The - Walking Talking Baby Doll
TTITLE5=Miller Arlie and the Bullets - Lou Ann
TTITLE6=Foley Jim and the Big Beats - Goodbye Train
TTITLE7=Morrison Curley Jim - Rock 'n' Roll Itch
TTITLE8=Morrison Curley Jim - Air Forse Blues
TTITLE9=Thompson Tennessee - with the Boomerangs - Saturday Ball
TTITLE10=Thompson Tennessee - with the Boomerangs - Slippin' and Sliddin'
TTITLE11=Dowd Larry and the Rock-a-Tones - Blue Swinging Mama
TTITLE12=Moore Red and the Rhythm Drifters - Crawdad Song
TTITLE13=Grubbs Jimmy and his Music Makers - Let's Rock Tonight
TTITLE14=HI Tomps - Sweet Rockin' Mama
TTITLE15=Stewart Franklin and the Stewart Brothers - That long black Train
TTITLE16=Wayne Billy - I Love my Baby
TTITLE17=Miller Carl - Rhythm Guitar
TTITLE18=Scott Ray and the Demons - You Drive me Crazy
TTITLE19=McKennon Kenny and his Blue Cats - Call your Daddy Baby
TTITLE20=Dinkins Tim and the Texas Cut Ups - Cattin' Tonight
TTITLE21=McCoy Ray and the Stanton Combo - Rockin' Baby
TTITLE22=McCoy Ray and the Stanton Combo - I need it
TTITLE23=Campbell Cecil and his Tennessee Ramblers - Rock and Roll Fever
TTITLE24=Skelton Eddie - Keep it Swinging
EXTD=
EXTT0=
EXTT1=
EXTT2=
EXTT3=
EXTT4=
EXTT5=
EXTT6=
EXTT7=
EXTT8=
EXTT9=
EXTT10=
EXTT11=
EXTT12=
EXTT13=
EXTT14=
EXTT15=
EXTT16=
EXTT17=
EXTT18=
EXTT19=
EXTT20=
EXTT21=
EXTT22=
EXTT23=
EXTT24=
PLAYORDER=
